<svg xmlns="http://www.w3.org/2000/svg" width="1200" height="300" viewBox="0 0 1200 300" role="img" aria-labelledby="title desc">
  <title id="title">Fahad Ur Rehman — Data Scientist</title>
  <desc id="desc">Professional profile card for Fahad Ur Rehman focused on Data Science, Machine Learning and AI.</desc>
  <defs>
    <linearGradient id="bg" x1="0" y1="0" x2="1" y2="1">
      <stop offset="0%" stop-color="#07111f"/>
      <stop offset="52%" stop-color="#0c2433"/>
      <stop offset="100%" stop-color="#123e50"/>
    </linearGradient>
    <linearGradient id="accent" x1="0" y1="0" x2="1" y2="0">
      <stop offset="0%" stop-color="#22d3ee"/>
      <stop offset="50%" stop-color="#60a5fa"/>
      <stop offset="100%" stop-color="#a78bfa"/>
    </linearGradient>
    <radialGradient id="glow" cx="80%" cy="20%" r="70%">
      <stop offset="0%" stop-color="#38bdf8" stop-opacity=".28"/>
      <stop offset="100%" stop-color="#38bdf8" stop-opacity="0"/>
    </radialGradient>
    <filter id="soft" x="-20%" y="-20%" width="140%" height="140%">
      <feGaussianBlur stdDeviation="18"/>
    </filter>
    <pattern id="grid" width="36" height="36" patternUnits="userSpaceOnUse">
      <path d="M36 0H0V36" fill="none" stroke="#94a3b8" stroke-opacity=".07"/>
    </pattern>
  </defs>

  <rect x="8" y="8" width="1184" height="284" rx="28" fill="url(#bg)" stroke="#2dd4bf" stroke-opacity=".28" stroke-width="2"/>
  <rect x="8" y="8" width="1184" height="284" rx="28" fill="url(#grid)"/>
  <rect x="8" y="8" width="1184" height="284" rx="28" fill="url(#glow)"/>

  <circle cx="1010" cy="80" r="72" fill="#38bdf8" opacity=".10" filter="url(#soft)"/>
  <circle cx="1080" cy="215" r="54" fill="#a78bfa" opacity=".10" filter="url(#soft)"/>

  <path d="M805 65 C865 30, 925 120, 980 84 S1085 55, 1150 105" fill="none" stroke="url(#accent)" stroke-opacity=".35" stroke-width="2"/>
  <path d="M820 220 C875 180, 925 235, 990 185 S1090 180, 1160 225" fill="none" stroke="#22d3ee" stroke-opacity=".20" stroke-width="2"/>
  <g fill="#67e8f9">
    <circle cx="805" cy="65" r="3"/><circle cx="980" cy="84" r="3"/><circle cx="1150" cy="105" r="3"/>
    <circle cx="820" cy="220" r="3"/><circle cx="990" cy="185" r="3"/><circle cx="1160" cy="225" r="3"/>
  </g>

  <rect x="58" y="48" width="126" height="30" rx="15" fill="#0f2f40" stroke="#38bdf8" stroke-opacity=".35"/>
  <text x="121" y="69" text-anchor="middle" fill="#7dd3fc" font-family="Arial,Helvetica,sans-serif" font-size="13" font-weight="700" letter-spacing="2">DATA SCIENTIST</text>

  <text x="58" y="130" fill="#f8fafc" font-family="Arial,Helvetica,sans-serif" font-size="43" font-weight="800">FAHAD UR REHMAN</text>
  <rect x="58" y="148" width="480" height="4" rx="2" fill="url(#accent)"/>

  <text x="58" y="188" fill="#dbeafe" font-family="Arial,Helvetica,sans-serif" font-size="20" font-weight="600">Machine Learning  •  Deep Learning  •  NLP  •  AI</text>
  <text x="58" y="220" fill="#94a3b8" font-family="Arial,Helvetica,sans-serif" font-size="15">Building practical AI systems from data — from exploration to deployable applications.</text>

  <g transform="translate(58 246)">
    <rect width="150" height="28" rx="14" fill="#0f2f40" stroke="#22d3ee" stroke-opacity=".25"/>
    <text x="75" y="19" text-anchor="middle" fill="#bae6fd" font-family="Arial,Helvetica,sans-serif" font-size="12" font-weight="700">NLP &amp; LLMs</text>
    <rect x="160" width="176" height="28" rx="14" fill="#0f2f40" stroke="#60a5fa" stroke-opacity=".25"/>
    <text x="248" y="19" text-anchor="middle" fill="#bfdbfe" font-family="Arial,Helvetica,sans-serif" font-size="12" font-weight="700">Computer Vision</text>
    <rect x="346" width="165" height="28" rx="14" fill="#0f2f40" stroke="#a78bfa" stroke-opacity=".25"/>
    <text x="428" y="19" text-anchor="middle" fill="#ddd6fe" font-family="Arial,Helvetica,sans-serif" font-size="12" font-weight="700">AI Agents</text>
  </g>

  <g transform="translate(785 145)">
    <circle cx="0" cy="0" r="58" fill="none" stroke="#38bdf8" stroke-opacity=".18"/>
    <circle cx="0" cy="0" r="40" fill="none" stroke="#a78bfa" stroke-opacity=".18"/>
    <circle cx="0" cy="0" r="8" fill="#67e8f9"/>
    <circle cx="-45" cy="-20" r="5" fill="#60a5fa"/><circle cx="43" cy="-28" r="5" fill="#a78bfa"/>
    <circle cx="35" cy="35" r="5" fill="#22d3ee"/><circle cx="-36" cy="38" r="5" fill="#60a5fa"/>
    <path d="M0 0L-45 -20M0 0L43 -28M0 0L35 35M0 0L-36 38" stroke="#67e8f9" stroke-opacity=".3"/>
  </g>

  <text x="930" y="152" fill="#94a3b8" font-family="Arial,Helvetica,sans-serif" font-size="11" font-weight="700" letter-spacing="2">FOCUS</text>
  <text x="930" y="178" fill="#e0f2fe" font-family="Arial,Helvetica,sans-serif" font-size="17" font-weight="700">AI &amp; DATA SCIENCE</text>
  <text x="930" y="205" fill="#94a3b8" font-family="Arial,Helvetica,sans-serif" font-size="13">Research • Engineering • Applied ML</text>
</svg>