<svg xmlns="http://www.w3.org/2000/svg" width="610" height="360" viewBox="0 0 610 360">
<rect width="610" height="360" rx="14" fill="#0d1117"/>
<text x="24" y="34" fill="#1677ff" font-family="Arial,Helvetica,sans-serif" font-size="24" font-weight="700">Most Used Languages &amp; Tools</text>
<text x="24" y="53" fill="#4b7280" font-family="Arial,Helvetica,sans-serif" font-size="10">Usage = coverage across 12 public project repositories</text>

<g font-family="Arial,Helvetica,sans-serif">
<text x="24" y="78" fill="#4b8ca1" font-size="11" font-weight="600">Python / Jupyter</text><rect x="24" y="85" width="92" height="5" rx="2.5" fill="#18212b"/><rect x="24" y="85" width="92" height="5" rx="2.5" fill="#1677ff"/><text x="122" y="90" fill="#1677ff" font-size="10" font-weight="700">100.0%</text><text x="24" y="116" fill="#4b8ca1" font-size="11" font-weight="600">Pandas</text><rect x="24" y="123" width="92" height="5" rx="2.5" fill="#18212b"/><rect x="24" y="123" width="84.364" height="5" rx="2.5" fill="#1677ff"/><text x="122" y="128" fill="#1677ff" font-size="10" font-weight="700">91.7%</text><text x="24" y="154" fill="#4b8ca1" font-size="11" font-weight="600">NumPy</text><rect x="24" y="161" width="92" height="5" rx="2.5" fill="#18212b"/><rect x="24" y="161" width="84.364" height="5" rx="2.5" fill="#1677ff"/><text x="122" y="166" fill="#1677ff" font-size="10" font-weight="700">91.7%</text><text x="24" y="192" fill="#4b8ca1" font-size="11" font-weight="600">Scikit-learn</text><rect x="24" y="199" width="92" height="5" rx="2.5" fill="#18212b"/><rect x="24" y="199" width="76.636" height="5" rx="2.5" fill="#1677ff"/><text x="122" y="204" fill="#1677ff" font-size="10" font-weight="700">83.3%</text><text x="24" y="230" fill="#4b8ca1" font-size="11" font-weight="600">Matplotlib</text><rect x="24" y="237" width="92" height="5" rx="2.5" fill="#18212b"/><rect x="24" y="237" width="76.636" height="5" rx="2.5" fill="#1677ff"/><text x="122" y="242" fill="#1677ff" font-size="10" font-weight="700">83.3%</text><text x="24" y="268" fill="#4b8ca1" font-size="11" font-weight="600">Seaborn</text><rect x="24" y="275" width="92" height="5" rx="2.5" fill="#18212b"/><rect x="24" y="275" width="69" height="5" rx="2.5" fill="#1677ff"/><text x="122" y="280" fill="#1677ff" font-size="10" font-weight="700">75.0%</text><text x="24" y="306" fill="#4b8ca1" font-size="11" font-weight="600">SHAP</text><rect x="24" y="313" width="92" height="5" rx="2.5" fill="#18212b"/><rect x="24" y="313" width="53.636" height="5" rx="2.5" fill="#1677ff"/><text x="122" y="318" fill="#1677ff" font-size="10" font-weight="700">58.3%</text>

<text x="218" y="78" fill="#4b8ca1" font-size="11" font-weight="600">Jupyter</text><rect x="218" y="85" width="92" height="5" rx="2.5" fill="#18212b"/><rect x="218" y="85" width="76.636" height="5" rx="2.5" fill="#19a7ce"/><text x="316" y="90" fill="#1677ff" font-size="10" font-weight="700">83.3%</text><text x="218" y="116" fill="#4b8ca1" font-size="11" font-weight="600">Google Colab</text><rect x="218" y="123" width="92" height="5" rx="2.5" fill="#18212b"/><rect x="218" y="123" width="53.636" height="5" rx="2.5" fill="#19a7ce"/><text x="316" y="128" fill="#1677ff" font-size="10" font-weight="700">58.3%</text><text x="218" y="154" fill="#4b8ca1" font-size="11" font-weight="600">HTML</text><rect x="218" y="161" width="92" height="5" rx="2.5" fill="#18212b"/><rect x="218" y="161" width="46" height="5" rx="2.5" fill="#19a7ce"/><text x="316" y="166" fill="#1677ff" font-size="10" font-weight="700">50.0%</text><text x="218" y="192" fill="#4b8ca1" font-size="11" font-weight="600">CSS</text><rect x="218" y="199" width="92" height="5" rx="2.5" fill="#18212b"/><rect x="218" y="199" width="23" height="5" rx="2.5" fill="#19a7ce"/><text x="316" y="204" fill="#1677ff" font-size="10" font-weight="700">25.0%</text><text x="218" y="230" fill="#4b8ca1" font-size="11" font-weight="600">Flask</text><rect x="218" y="237" width="92" height="5" rx="2.5" fill="#18212b"/><rect x="218" y="237" width="23" height="5" rx="2.5" fill="#19a7ce"/><text x="316" y="242" fill="#1677ff" font-size="10" font-weight="700">25.0%</text><text x="218" y="268" fill="#4b8ca1" font-size="11" font-weight="600">TensorFlow</text><rect x="218" y="275" width="92" height="5" rx="2.5" fill="#18212b"/><rect x="218" y="275" width="15.364" height="5" rx="2.5" fill="#19a7ce"/><text x="316" y="280" fill="#1677ff" font-size="10" font-weight="700">16.7%</text><text x="218" y="306" fill="#4b8ca1" font-size="11" font-weight="600">Power BI</text><rect x="218" y="313" width="92" height="5" rx="2.5" fill="#18212b"/><rect x="218" y="313" width="15.364" height="5" rx="2.5" fill="#19a7ce"/><text x="316" y="318" fill="#1677ff" font-size="10" font-weight="700">16.7%</text>

<text x="412" y="78" fill="#4b8ca1" font-size="11" font-weight="600">SQL</text><rect x="412" y="85" width="92" height="5" rx="2.5" fill="#18212b"/><rect x="412" y="85" width="7.636000000000001" height="5" rx="2.5" fill="#2c5364"/><text x="510" y="90" fill="#1677ff" font-size="10" font-weight="700">8.3%</text><text x="412" y="116" fill="#4b8ca1" font-size="11" font-weight="600">PyTorch</text><rect x="412" y="123" width="92" height="5" rx="2.5" fill="#18212b"/><rect x="412" y="123" width="7.636000000000001" height="5" rx="2.5" fill="#2c5364"/><text x="510" y="128" fill="#1677ff" font-size="10" font-weight="700">8.3%</text><text x="412" y="154" fill="#4b8ca1" font-size="11" font-weight="600">Keras</text><rect x="412" y="161" width="92" height="5" rx="2.5" fill="#18212b"/><rect x="412" y="161" width="7.636000000000001" height="5" rx="2.5" fill="#2c5364"/><text x="510" y="166" fill="#1677ff" font-size="10" font-weight="700">8.3%</text><text x="412" y="192" fill="#4b8ca1" font-size="11" font-weight="600">LIME</text><rect x="412" y="199" width="92" height="5" rx="2.5" fill="#18212b"/><rect x="412" y="199" width="7.636000000000001" height="5" rx="2.5" fill="#2c5364"/><text x="510" y="204" fill="#1677ff" font-size="10" font-weight="700">8.3%</text><text x="412" y="230" fill="#4b8ca1" font-size="11" font-weight="600">Selenium</text><rect x="412" y="237" width="92" height="5" rx="2.5" fill="#18212b"/><rect x="412" y="237" width="7.636000000000001" height="5" rx="2.5" fill="#2c5364"/><text x="510" y="242" fill="#1677ff" font-size="10" font-weight="700">8.3%</text><text x="412" y="268" fill="#4b8ca1" font-size="11" font-weight="600">YAML</text><rect x="412" y="275" width="92" height="5" rx="2.5" fill="#18212b"/><rect x="412" y="275" width="7.636000000000001" height="5" rx="2.5" fill="#2c5364"/><text x="510" y="280" fill="#1677ff" font-size="10" font-weight="700">8.3%</text><text x="412" y="306" fill="#4b8ca1" font-size="11" font-weight="600">Git / GitHub</text><rect x="412" y="313" width="92" height="5" rx="2.5" fill="#18212b"/><rect x="412" y="313" width="92" height="5" rx="2.5" fill="#2c5364"/><text x="510" y="318" fill="#1677ff" font-size="10" font-weight="700">100.0%</text>
</g>

<text x="24" y="342" fill="#355d70" font-family="Arial,Helvetica,sans-serif" font-size="9">Also tracked: Streamlit 0.0% • OpenCV 0.0% • Tableau 0.0% in current public repos</text>
</svg>